<svg width="50" height="50" viewBox="0 0 50 50" fill="none" xmlns="http://www.w3.org/2000/svg">
<circle cx="25" cy="25" r="25" fill="url(#paint0_linear_120_16)"/>
<g clip-path="url(#clip0_120_16)">
<path d="M27.4167 22.9583C27.4231 23.4513 27.4927 23.9414 27.6238 24.4166H21.3763C21.5074 23.9414 21.577 23.4513 21.5834 22.9583H27.4167ZM22.3125 17.125H26.6875C27.2341 17.1269 27.7731 17.2525 28.2643 17.4921C28.7555 17.7318 29.1861 18.0794 29.524 18.5089C29.8967 18.1927 30.3078 17.9247 30.7475 17.7112C30.276 17.0787 29.6636 16.5646 28.9589 16.2097C28.2542 15.8548 27.4765 15.6689 26.6875 15.6666H22.3125C21.5235 15.6689 20.7459 15.8548 20.0412 16.2097C19.3365 16.5646 18.7241 17.0787 18.2525 17.7112C18.6928 17.9246 19.1043 18.1926 19.4775 18.5089C19.8153 18.0796 20.2457 17.7321 20.7366 17.4924C21.2275 17.2528 21.7663 17.1272 22.3125 17.125ZM20.125 9.83332C20.125 8.96802 20.3816 8.12216 20.8624 7.4027C21.3431 6.68323 22.0264 6.12248 22.8258 5.79134C23.6252 5.46021 24.5049 5.37357 25.3536 5.54238C26.2022 5.71119 26.9818 6.12787 27.5936 6.73972C28.2055 7.35158 28.6222 8.13113 28.791 8.9798C28.9598 9.82846 28.8731 10.7081 28.542 11.5076C28.2109 12.307 27.6501 12.9903 26.9307 13.471C26.2112 13.9517 25.3653 14.2083 24.5 14.2083C23.3401 14.2072 22.2279 13.7458 21.4077 12.9256C20.5875 12.1054 20.1262 10.9933 20.125 9.83332ZM21.5834 9.83332C21.5834 10.4102 21.7544 10.9741 22.0749 11.4537C22.3954 11.9334 22.8509 12.3072 23.3839 12.528C23.9168 12.7487 24.5033 12.8065 25.0691 12.6939C25.6348 12.5814 26.1545 12.3036 26.5624 11.8957C26.9703 11.4878 27.2481 10.9681 27.3607 10.4023C27.4732 9.83655 27.4154 9.25011 27.1947 8.71716C26.9739 8.1842 26.6001 7.72868 26.1205 7.4082C25.6408 7.08771 25.0769 6.91665 24.5 6.91665C23.7267 6.91742 22.9853 7.22496 22.4385 7.77177C21.8917 8.31859 21.5841 9.06 21.5834 9.83332ZM13.5625 28.7916H17.9375C19.2908 28.7932 20.5881 29.3314 21.545 30.2883C22.5019 31.2452 23.0402 32.5426 23.0417 33.8958V37.5416H8.45837V33.8958C8.45992 32.5426 8.99817 31.2452 9.95506 30.2883C10.9119 29.3314 12.2093 28.7932 13.5625 28.7916ZM13.5625 30.25C12.596 30.2511 11.6693 30.6356 10.9858 31.3191C10.3024 32.0026 9.91787 32.9292 9.91671 33.8958V36.0833H21.5834V33.8958C21.5822 32.9292 21.1977 32.0026 20.5143 31.3191C19.8308 30.6356 18.9041 30.2511 17.9375 30.25H13.5625ZM15.75 27.3333C14.8847 27.3333 14.0389 27.0767 13.3194 26.596C12.6 26.1153 12.0392 25.432 11.7081 24.6326C11.3769 23.8331 11.2903 22.9535 11.4591 22.1048C11.6279 21.2561 12.0446 20.4766 12.6564 19.8647C13.2683 19.2529 14.0479 18.8362 14.8965 18.6674C15.7452 18.4986 16.6249 18.5852 17.4243 18.9163C18.2237 19.2475 18.907 19.8082 19.3877 20.5277C19.8685 21.2472 20.125 22.093 20.125 22.9583C20.1239 24.1183 19.6626 25.2304 18.8424 26.0506C18.0221 26.8708 16.91 27.3322 15.75 27.3333ZM15.75 25.875C16.3269 25.875 16.8908 25.7039 17.3705 25.3834C17.8501 25.0629 18.2239 24.6074 18.4447 24.0745C18.6654 23.5415 18.7232 22.9551 18.6107 22.3893C18.4981 21.8235 18.2203 21.3038 17.8124 20.8959C17.4045 20.488 16.8848 20.2102 16.3191 20.0977C15.7533 19.9852 15.1668 20.0429 14.6339 20.2637C14.1009 20.4844 13.6454 20.8583 13.3249 21.3379C13.0044 21.8175 12.8334 22.3815 12.8334 22.9583C12.8341 23.7316 13.1417 24.473 13.6885 25.0199C14.2353 25.5667 14.9767 25.8742 15.75 25.875ZM40.5417 33.8958V37.5416H25.9584V33.8958C25.9599 32.5426 26.4982 31.2452 27.4551 30.2883C28.4119 29.3314 29.7093 28.7932 31.0625 28.7916H35.4375C36.7908 28.7932 38.0881 29.3314 39.045 30.2883C40.0019 31.2452 40.5402 32.5426 40.5417 33.8958ZM39.0834 33.8958C39.0822 32.9292 38.6977 32.0026 38.0143 31.3191C37.3308 30.6356 36.4041 30.2511 35.4375 30.25H31.0625C30.096 30.2511 29.1693 30.6356 28.4858 31.3191C27.8023 32.0026 27.4179 32.9292 27.4167 33.8958V36.0833H39.0834V33.8958ZM37.625 22.9583C37.625 23.8236 37.3685 24.6695 36.8877 25.3889C36.407 26.1084 35.7237 26.6692 34.9243 27.0003C34.1249 27.3314 33.2452 27.4181 32.3965 27.2493C31.5479 27.0804 30.7683 26.6638 30.1564 26.0519C29.5446 25.4401 29.1279 24.6605 28.9591 23.8118C28.7903 22.9632 28.8769 22.0835 29.2081 21.2841C29.5392 20.4846 30.1 19.8014 30.8194 19.3206C31.5389 18.8399 32.3847 18.5833 33.25 18.5833C34.41 18.5845 35.5221 19.0458 36.3424 19.866C37.1626 20.6862 37.6239 21.7983 37.625 22.9583ZM36.1667 22.9583C36.1667 22.3815 35.9956 21.8175 35.6752 21.3379C35.3547 20.8583 34.8992 20.4844 34.3662 20.2637C33.8332 20.0429 33.2468 19.9852 32.681 20.0977C32.1152 20.2102 31.5955 20.488 31.1876 20.8959C30.7797 21.3038 30.502 21.8235 30.3894 22.3893C30.2769 22.9551 30.3346 23.5415 30.5554 24.0745C30.7761 24.6074 31.15 25.0629 31.6296 25.3834C32.1093 25.7039 32.6732 25.875 33.25 25.875C34.0234 25.8742 34.7648 25.5667 35.3116 25.0199C35.8584 24.473 36.1659 23.7316 36.1667 22.9583Z" fill="white"/>
</g>
<defs>
<linearGradient id="paint0_linear_120_16" x1="25" y1="0" x2="25" y2="50" gradientUnits="userSpaceOnUse">
<stop stop-color="#6585E8"/>
<stop offset="1" stop-color="#B36BEB"/>
</linearGradient>
<clipPath id="clip0_120_16">
<rect width="35" height="35" fill="white" transform="translate(7 4)"/>
</clipPath>
</defs>
</svg>
